<svg xmlns="http://www.w3.org/2000/svg" fill="#00acd7" viewBox="67.95 0 188.05 95.64">
  <path d="M 160.043 26.716 L 139.1 32.2 C 137.23 32.7 137.106 32.823 135.485 30.954 C 133.615 28.834 132.245 27.454 129.627 26.218 C 121.775 22.354 114.171 23.476 107.067 28.088 C 98.591 33.572 94.229 41.674 94.353 51.77 C 94.478 61.74 101.333 69.968 111.18 71.34 C 119.656 72.462 126.76 69.47 132.37 63.114 C 133.492 61.744 134.49 60.247 135.735 58.502 L 111.68 58.502 C 109.063 58.502 108.44 56.882 109.312 54.762 C 110.932 50.898 113.924 44.417 115.669 41.176 C 116.043 40.428 116.915 39.182 118.785 39.182 L 164.155 39.182 C 163.905 42.547 163.905 45.912 163.407 49.278 C 162.037 58.252 158.671 66.478 153.187 73.708 C 144.213 85.548 132.497 92.903 117.664 94.898 C 105.449 96.518 94.107 94.15 84.134 86.672 C 74.9 79.69 69.675 70.466 68.304 59 C 66.684 45.414 70.672 33.2 78.899 22.48 C 87.749 10.888 99.465 3.534 113.799 0.917 C 125.515 -1.203 136.733 0.169 146.829 7.024 C 153.435 11.386 158.171 17.369 161.289 24.599 C 162.037 25.721 161.539 26.344 160.043 26.719 L 160.043 26.716 Z"/>
  <path d="M201.297 95.643c-11.342-.25-21.688-3.5-30.413-10.97-7.354-6.357-11.966-14.46-13.46-24.056-2.244-14.085 1.62-26.55 10.096-37.642 9.1-11.966 20.067-18.198 34.9-20.815 12.714-2.244 24.68-.997 35.523 6.357 9.847 6.73 15.954 15.83 17.575 27.795 2.12 16.827-2.742 30.537-14.334 42.254-8.226 8.35-18.322 13.586-29.914 15.954-3.365.623-6.73.748-9.97 1.122zm29.665-50.355c-.125-1.62-.125-2.867-.374-4.113-2.244-12.34-13.586-19.32-25.427-16.577-11.592 2.617-19.07 9.97-21.812 21.688-2.244 9.722 2.493 19.57 11.467 23.557 6.855 2.99 13.71 2.617 20.317-.748 9.847-5.1 15.206-13.087 15.83-23.807z"/>
</svg>